<svg xmlns="http://www.w3.org/2000/svg" xmlns:xlink="http://www.w3.org/1999/xlink" viewBox="0 0 1045.65 501.53"><defs><style>.cls-1{fill:#fff;}.cls-2{mask:url(#mask);}.cls-3{fill:#632daa;}.cls-4{mask:url(#mask-2);}.cls-5{mask:url(#mask-3);}.cls-6{mask:url(#mask-4);}.cls-7{mask:url(#mask-5);}</style><mask id="mask" x="222.43" y="-0.46" width="224.56" height="255.82" maskUnits="userSpaceOnUse"><g id="a"><path class="cls-1" d="M222.43-.46H447V255.36H222.43Z"/><path d="M267.07,38.66l38.74,120.71q6.69,20.87,18.22,28.68,11.43,7.51,30.62,1.37t24.09-18.93q4.83-13.06-1.87-33.93L338.14,15.85,379.88,2.46l37.29,116.19q7,21.72,7.89,39.15,1.13,17.05-4.83,30.48-6.06,13.14-19.09,22.92-13.12,9.51-34.28,16.29t-37.35,6.7q-16.29-.36-28.86-7.53-12.66-7.46-22-21.89-9.1-14.81-16.07-36.52L225.33,52.06l41.74-13.4Z"/></g></mask><mask id="mask-2" x="711.07" y="290.46" width="102.77" height="211.53" maskUnits="userSpaceOnUse"><g id="b"><path class="cls-1" d="M711.07,290.46H813.84V502H711.07Z"/><path d="M811.72,499.56V463.72H785.06l0-135.06h26.65V292.82l-98.33,0v35.84H740l0,135.06H713.38v35.84l98.33,0Z"/></g></mask><mask id="mask-3" x="829.15" y="51.85" width="233.15" height="261.68" maskUnits="userSpaceOnUse"><g id="c"><path class="cls-1" d="M829.15,51.85H1062.3V313.53H829.15Z"/><path d="M984.4,282.54q-20,6.43-38.09,5.38a77.34,77.34,0,0,1-33.42-10.11q-15.35-9.07-27.53-25.7-12.27-16.91-20.32-42-8-24.83-7.92-46,0-21.45,7.08-38a75.8,75.8,0,0,1,20.93-28.8Q899,85.34,919.06,78.92q27.36-8.78,48.74-3.2,21.3,5.3,39.71,25.83l-30.79,31q-7.94-11.15-18.74-15.76-10.63-5-26.7.17-18.9,6.06-26.48,22.18-7.39,15.75.12,39.15l10.14,31.59q7.52,23.42,22.77,32.2,15.46,8.41,34.35,2.35Q988,239.4,994.57,228a55.36,55.36,0,0,0,7.4-25.39l41.49,9.08q-3.75,26.09-17.82,44.29-13.88,17.83-41.24,26.61Z"/></g></mask><mask id="mask-4" x="467.22" y="153.31" width="202.27" height="245.57" maskUnits="userSpaceOnUse"><g id="d"><path class="cls-1" d="M467.22,153.31H669.49V398.88H467.22Z"/><path d="M547.54,381q-26.76-5.08-43.68-17.63a107.57,107.57,0,0,1-27.19-29.88l34.67-23.87q16.24,27.19,46.51,32.94,16.29,3.09,25.42-2.11t11.22-16.26q1.6-8.44-2-14.86-3.56-6.69-17.42-11.44l-19.59-6.43q-31.53-10.2-43.73-28.49-11.92-18.24-7.06-43.85a60.11,60.11,0,0,1,10-24,57.26,57.26,0,0,1,18.54-16.68,71.08,71.08,0,0,1,26.24-8,105.75,105.75,0,0,1,33.18,1.47q23,4.36,39.07,14.95a83.64,83.64,0,0,1,25.95,26.93l-35,24.1a57.72,57.72,0,0,0-15.16-17q-9.13-7.46-24.85-10.44-14.85-2.82-23.11,1a17.24,17.24,0,0,0-10,13.17q-2,10.48,2.66,16.18,4.93,5.76,17.36,10.23L589,258q30.48,10.9,42.86,28.33,12.42,17.13,7.41,43.61a68.62,68.62,0,0,1-10.32,25.78,57.66,57.66,0,0,1-19.4,18q-11.55,6.85-27.33,9-15.72,1.85-34.64-1.75Z"/></g></mask><mask id="mask-5" x="-0.23" y="178.67" width="195.81" height="205.48" maskUnits="userSpaceOnUse"><g id="e"><path class="cls-1" d="M-.23,178.67H195.58V384.15H-.23Z"/><path d="M152,250.12h-.86l-14.66,29.31-39.08,71L59.14,279.72,43.91,248.11h-.86V381.73H2V181.15H48.22l49.14,94h.58l48.56-94h46.55V381.73H152Z"/></g></mask></defs><g id="Слой_2" data-name="Слой 2"><g id="Слой_1-2" data-name="Слой 1"><g class="cls-2"><path class="cls-3" d="M267.07,38.66l1.86-.6-.6-1.86-1.86.6Zm57,149.39-1.1,1.61h0Zm54.71-17.56,1.83.7h0l-1.84-.68ZM338.14,15.85l-.6-1.86-1.86.6.6,1.86ZM379.88,2.46l1.86-.6L381.14,0l-1.86.6ZM425.06,157.8l-1.95.1h0v0l1.95-.13Zm-4.83,30.48,1.77.82h0v0l-1.78-.79ZM401.14,211.2l1.15,1.59h0Zm-71.63,23-.05,2h0Zm-28.86-7.53-1,1.68h0l1-1.69Zm-22-21.89-1.66,1h0v0ZM225.33,52.06l-.6-1.86-1.86.59.6,1.86Zm39.88-12.8L304,160l3.72-1.19L268.93,38.06l-3.72,1.2ZM304,160c4.52,14.11,10.78,24.15,19,29.7l2.2-3.23c-7.17-4.86-13.06-13.94-17.46-27.66L304,160Zm19,29.72c8.31,5.47,19.21,5.8,32.28,1.6l-1.19-3.72c-12.5,4-22,3.42-28.95-1.15L323,189.68Zm32.28,1.6c13.08-4.2,21.75-10.8,25.33-20.09l-3.65-1.41c-3,7.75-10.38,13.77-22.87,17.78l1.19,3.72Zm25.33-20.11c3.44-9.3,2.69-21.1-1.83-35.21l-3.73,1.2c4.41,13.72,4.9,24.53,1.9,32.65l3.67,1.36ZM378.74,136,340,15.26l-3.72,1.19L375,137.16Zm-40-118.25L380.47,4.32,379.28.6,337.54,14l1.19,3.72ZM378,3.05l37.29,116.2,3.72-1.2L381.74,1.86,378,3.05Zm37.29,116.2q6.92,21.54,7.8,38.65l3.9-.21q-.94-17.74-8-39.64l-3.72,1.2Zm7.8,38.68c.73,11.11-.85,20.94-4.67,29.56l3.57,1.58q6.18-13.92,5-31.4l-3.9.26Zm-4.66,29.53Q412.63,200.1,400,209.64l2.34,3.13c8.92-6.7,15.51-14.58,19.69-23.67ZM400,209.62q-12.81,9.27-33.73,16l1.19,3.72q21.35-6.84,34.83-16.56Zm-33.73,16q-21,6.74-36.75,6.61l0,3.91q16.61.09,38-6.8l-1.19-3.72Zm-36.72,6.61C319,232,309.68,229.56,301.62,225l-1.94,3.39c8.69,5,18.64,7.54,29.78,7.8ZM301.64,225c-8.13-4.78-15.24-11.84-21.3-21.26l-3.29,2.12c6.34,9.84,13.87,17.37,22.61,22.51Zm-21.28-21.22q-9-14.56-15.88-36.1l-3.72,1.2q7,21.87,16.27,37l3.33-2.05Zm-15.88-36.1L227.19,51.46l-3.72,1.19,37.29,116.2ZM225.93,53.92l41.73-13.4-1.19-3.72L224.73,50.2Z"/></g><g class="cls-4"><path class="cls-3" d="M811.72,499.56h2v2h-2Zm0-35.84v-2h1.95v2Zm-26.66,0v1.95h-2v-1.95Zm0-135.06h-1.95v-2H785Zm26.65,0h2v1.95H811.7Zm0-35.84v-1.95h2v1.95Zm-98.33,0h-2v-2h2Zm0,35.84v1.95h-2v-1.95Zm26.66,0v-1.95h2v1.95Zm0,135.06h2v2h-2Zm-26.66,0h-2v-2h2Zm0,35.84v1.95h-2v-1.95Zm96.38,0V463.72h3.91v35.84Zm2-33.88H785.06v-3.91h26.66Zm-28.62-1.95V328.67H787V463.73Zm1.94-137h26.65v3.91H785Zm24.7,2V292.82h3.91v35.84Zm2-33.88H713.36v-3.91h98.33Zm-96.38-1.94v35.84h-3.9V292.84Zm-1.95,33.88H740v3.91H713.36ZM742,328.67l0,135.06h-3.9l0-135.06Zm-1.93,137H713.38v-3.91H740Zm-24.71-1.95v35.84h-3.91V463.74Zm-1.94,33.88h98.33v3.91H713.39Z"/></g><g class="cls-5"><path class="cls-3" d="M946.31,287.92l-.14,1.95h0l.11-1.95Zm-33.42-10.11-1,1.68h0l1-1.69Zm-27.53-25.7-1.58,1.15h0Zm-28.24-88h0Zm7.08-38,1.79.77h0Zm20.93-28.8-1.27-1.49ZM967.8,75.72l-.49,1.89h0l.47-1.9Zm39.71,25.83,1.39,1.38,1.29-1.31-1.23-1.37Zm-30.79,31-1.59,1.13,1.34,1.89,1.64-1.65-1.39-1.37ZM958,116.83l-.84,1.76,0,0h0l.77-1.79ZM904.8,139.18l-1.77-.83h0Zm33,102.94-1,1.69h0l.93-1.71ZM994.57,228l1.69,1h0Zm7.4-25.39.42-1.91-2.26-.5-.11,2.32,2,.09Zm41.49,9.08,1.93.28.26-1.8-1.77-.39-.42,1.91Zm-17.82,44.29,1.54,1.2h0Zm-41.83,24.75Q964.07,287,946.43,286l-.23,3.9q18.48,1.08,38.8-5.47l-1.19-3.72ZM946.46,286a75.35,75.35,0,0,1-32.59-9.86l-2,3.39a79.26,79.26,0,0,0,34.25,10.37l.29-3.9Zm-32.57-9.85q-15-8.83-26.95-25.16l-3.15,2.31q12.38,16.89,28.11,26.22l2-3.37ZM886.94,251q-12-16.6-20-41.46l-3.72,1.2q8.12,25.32,20.6,42.55l3.16-2.29Zm-20-41.46q-7.89-24.58-7.82-45.38h-3.91q-.06,21.54,8,46.59l3.72-1.2Zm-7.82-45.39Q859,143,866,126.85l-3.58-1.54q-7.32,17-7.24,38.82ZM866,126.83a73.89,73.89,0,0,1,20.4-28.07l-2.54-3a77.77,77.77,0,0,0-21.46,29.54l3.6,1.5Zm20.4-28.07q13.56-11.64,33.25-18l-1.19-3.72q-20.34,6.52-34.6,18.73Zm33.25-18c18-5.77,33.85-6.77,47.66-3.17l1-3.78c-14.71-3.84-31.35-2.7-49.83,3.23Zm47.68-3.16C981.06,81,994,89.38,1006.05,102.86l2.91-2.61c-12.46-13.91-26-22.78-40.69-26.42Zm38.79,22.55-30.79,31,2.78,2.75,30.79-31Zm-27.81,31.28c-5.46-7.67-12-13.18-19.57-16.42l-1.53,3.59c6.82,2.92,12.8,7.92,17.92,15.1l3.18-2.27ZM958.8,115.06c-7.69-3.62-17.14-3.45-28.12.07l1.19,3.73c10.45-3.36,18.8-3.31,25.27-.27l1.66-3.53Zm-28.12.07c-13,4.19-22.34,11.92-27.65,23.22l3.53,1.66c4.8-10.2,13.17-17.26,25.31-21.15ZM903,138.35c-5.21,11.1-5.07,24.7,0,40.58l3.72-1.19c-4.92-15.33-4.86-27.84-.21-37.73L903,138.35Zm0,40.58,10.14,31.59,3.72-1.2-10.14-31.58Zm10.14,31.59c5.09,15.88,12.92,27.11,23.66,33.29l1.95-3.39c-9.61-5.53-17-15.77-21.89-31.1Zm23.7,33.31c10.83,5.9,22.85,6.68,35.88,2.5l-1.19-3.72c-12.16,3.9-23.05,3.11-32.82-2.21Zm35.88,2.5c10.87-3.49,18.79-9.25,23.48-17.4l-3.38-2c-4.1,7.11-11.11,12.36-21.29,15.63l1.19,3.72Zm23.49-17.4a57.46,57.46,0,0,0,7.65-26.28l-3.9-.18A53.4,53.4,0,0,1,992.88,227l3.39,2Zm5.28-24.46,41.49,9.08.84-3.82-41.49-9.08Zm40,6.89q-3.71,25.66-17.44,43.38l3.09,2.39q14.41-18.66,18.21-45.21l-3.86-.56Zm-17.44,43.37c-8.95,11.51-22.32,20.19-40.28,26L985,284.4c18.51-5.94,32.63-15,42.18-27.27l-3.09-2.4Z"/></g><g class="cls-6"><path class="cls-3" d="M503.86,363.32l-1.19,1.55h0l1.17-1.57Zm-27.19-29.88-1.11-1.61L474,332.88l.95,1.57,1.68-1Zm34.67-23.87,1.68-1L512,306.78,510.23,308Zm71.93,30.83,1,1.69Zm9.22-31.12-1.72.92v0l1.71-1Zm-17.42-11.44.63-1.85h0l-.6,1.86Zm-19.59-6.43.61-1.85h0l-.6,1.86Zm-43.73-28.49L510.11,264h0ZM514.67,195l-1.59-1.14Zm18.54-16.68-.94-1.72h0l1,1.7Zm26.24-8,.22,1.94h0Zm72.25,16.42,1.08-1.63Zm25.95,26.93,1.1,1.61,1.52-1.05-.95-1.57-1.67,1Zm-35,24.1-1.7,1,1.06,1.83,1.74-1.2Zm-15.16-17-1.24,1.51,0,0,0,0,1.18-1.55Zm-48-9.4.83,1.77Zm-7.38,29.35L550.62,242v0h0ZM569.49,251l.66-1.84h0ZM589,258l-.67,1.84h0L589,258Zm42.86,28.33-1.59,1.13h0Zm-22.31,87.41-1-1.69h0l1,1.68Zm-27.33,9,.23,1.94h0ZM547.91,379q-26.46-5-42.89-17.28l-2.33,3.14q17.35,12.89,44.49,18ZM505,361.76a105.7,105.7,0,0,1-26.7-29.33l-3.35,2a109.69,109.69,0,0,0,27.68,30.42l2.37-3.11Zm-27.27-26.71,34.68-23.87L510.23,308l-34.67,23.87,2.21,3.22Zm31.89-24.48q16.66,27.9,47.83,33.86l.72-3.84c-19.61-3.72-34.64-14.35-45.19-32l-3.36,2Zm47.83,33.86c11.07,2.1,20.09,1.46,26.75-2.34l-1.94-3.39c-5.5,3.14-13.43,3.91-24.09,1.89l-.72,3.84Zm26.75-2.34c6.62-3.77,10.68-9.7,12.18-17.59l-3.84-.73c-1.31,6.86-4.73,11.77-10.28,14.93l1.94,3.39Zm12.18-17.59c1.13-6,.44-11.43-2.23-16.17l-3.41,1.91c2.15,3.81,2.8,8.28,1.8,13.53l3.84.73Zm-2.2-16.13c-2.74-5.17-9.19-9.19-18.52-12.38l-1.27,3.7c9.16,3.13,14.34,6.74,16.34,10.51l3.45-1.83ZM575.67,296l-19.58-6.42-1.22,3.71,19.59,6.43Zm-19.59-6.43c-20.8-6.73-34.91-16-42.71-27.72L510.12,264c8.48,12.71,23.53,22.4,44.76,29.27l1.2-3.72Zm-42.7-27.7c-7.61-11.66-9.93-25.73-6.77-42.41l-3.84-.73c-3.31,17.46-.93,32.61,7.34,45.28l3.27-2.14Zm-6.77-42.41a58.11,58.11,0,0,1,9.66-23.27l-3.19-2.27a62.18,62.18,0,0,0-10.31,24.81Zm9.66-23.27a55.14,55.14,0,0,1,17.91-16.11l-1.93-3.4a59.25,59.25,0,0,0-19.17,17.24Zm17.88-16.1a69.27,69.27,0,0,1,25.52-7.76l-.45-3.88a73.26,73.26,0,0,0-27,8.21l1.88,3.43Zm25.55-7.76a103.78,103.78,0,0,1,32.57,1.45l.73-3.84a107.79,107.79,0,0,0-33.8-1.49Zm32.57,1.45q22.69,4.31,38.36,14.66l2.15-3.26Q616.31,174.32,593,169.92Zm38.36,14.66A81.53,81.53,0,0,1,656,214.73l3.35-2a85.48,85.48,0,0,0-26.54-27.55l-2.15,3.26Zm25.91,23.69-35,24.11,2.22,3.21,35-24.1Zm-32.22,24.74a59.38,59.38,0,0,0-15.67-17.62l-2.36,3.1a55.68,55.68,0,0,1,14.64,16.47l3.39-2ZM608.7,219.27c-6.42-5.24-15-8.82-25.72-10.85l-.73,3.84c10.27,2,18.22,5.33,24,10l2.47-3ZM583,208.42c-10.05-1.91-18.24-1.63-24.3,1.19l1.66,3.54c5-2.32,12.18-2.74,21.91-.89l.73-3.84Zm-24.3,1.19a19.2,19.2,0,0,0-11.13,14.58l3.84.73a15.31,15.31,0,0,1,9-11.77Zm-11.13,14.58c-1.38,7.29-.53,13.35,3.07,17.78l3-2.47c-2.6-3.19-3.52-7.9-2.26-14.58l-3.84-.73Zm3.1,17.81c3.62,4.23,9.78,7.78,18.18,10.8l1.32-3.68c-8.17-2.94-13.57-6.2-16.53-9.66Zm18.18,10.8,19.46,7,1.33-3.68-19.47-7-1.32,3.68Zm19.47,7c20.13,7.2,34,16.46,41.93,27.62l3.18-2.26c-8.57-12.07-23.27-21.7-43.79-29Zm41.94,27.63c7.89,10.88,10.34,24.82,7.07,42.1l3.83.73c3.42-18,1-33.15-7.74-45.12l-3.16,2.29Zm7.07,42.1a66.6,66.6,0,0,1-10,25l3.24,2.19a70.33,70.33,0,0,0,10.61-26.51l-3.83-.73Zm-10,25A55.72,55.72,0,0,1,608.54,372l2,3.39a59.71,59.71,0,0,0,20-18.63ZM608.52,372c-7.44,4.41-16.29,7.34-26.6,8.73l.52,3.87q16.11-2.17,28.07-9.24ZM582,380.76q-15.37,1.8-34.05-1.73l-.73,3.84q19.14,3.63,35.23,1.77Z"/></g><g class="cls-7"><path class="cls-3" d="M152,250.12h1.95v-2H152Zm-.86,0v-2h-1.21l-.54,1.08Zm-14.66,29.31,1.71.94,0,0,0,0Zm-39.08,71-1.72.93,1.7,3.15,1.73-3.14ZM59.14,279.72l-1.76.84,0,.05,0,0,1.72-.93ZM43.91,248.11l1.76-.85-.53-1.11H43.91Zm-.86,0v-2h-2v2Zm0,133.62v2h2v-2Zm-41.1,0H0v2H2ZM2,181.15v-2H0v2Zm46.27,0,1.73-.91-.55-1.05H48.22v2Zm49.14,94-1.73.9.55,1.05h1.18v-1.95Zm.58,0v1.95h1.18l.55-1.05-1.73-.9Zm48.56-94v-2h-1.19l-.55,1.06Zm46.55,0h2v-2h-2Zm0,200.58v2h2v-2Zm-41.09,0h-2v2h2Zm0-133.57h-.86v3.91H152Zm-2.61,1.08-14.66,29.32,3.5,1.74L152.85,251Zm-14.62,29.25-39.08,71,3.42,1.88,39.08-71-3.42-1.88Zm-35.65,71L60.86,278.79l-3.44,1.86,38.22,70.69ZM60.9,278.87,45.67,247.26,42.15,249l15.23,31.61,3.52-1.69Zm-17-32.72h-.86v3.91h.86Zm-2.82,2V381.73H45V248.11Zm2,131.67H2v3.91h41.1v-3.91Zm-39.14,2V181.15H0V381.73ZM2,183.1H48.22v-3.91H2v3.91Zm44.54-1,49.14,94,3.46-1.81L50,180.24l-3.46,1.81Zm50.87,95h.58v-3.91h-.58ZM99.67,276l48.57-94-3.48-1.8-48.56,94,3.47,1.8ZM146.5,183.1h46.55v-3.91H146.5Zm44.6-1.95V381.73H195V181.15Zm2,198.63H152v3.91h41.09v-3.91Zm-39.14,2V250.12H150V381.73Z"/></g></g></g></svg>