<svg xmlns="http://www.w3.org/2000/svg" width="528" height="731" fill="none"><path stroke="#fff" stroke-miterlimit="10" stroke-opacity=".3" stroke-width="2.6644" d="m269.311 358.713-7.818 5.713-2.367 8.457 7.845-5.739 2.34-8.431Z"/><path stroke="#fff" stroke-miterlimit="10" stroke-opacity=".3" stroke-width="2.6644" d="m256.669 371.665 10.175-3.874 4.952-7.885-10.175 3.874-4.952 7.885Z"/><path stroke="#fff" stroke-miterlimit="10" stroke-opacity=".3" stroke-width="2.6644" d="m274.128 361.719-12.16 1.437-7.651 6.696 12.187-1.438 7.624-6.695Z"/><path stroke="#fff" stroke-miterlimit="10" stroke-opacity=".3" stroke-width="2.6644" d="m252.279 367.493 13.691 1.469 10.221-4.885-13.692-1.469-10.22 4.885Z"/><path stroke="#fff" stroke-miterlimit="10" stroke-opacity=".3" stroke-width="2.6644" d="m277.748 366.959-14.502-4.769-12.527 2.448 14.501 4.743 12.528-2.422Z"/><path stroke="#fff" stroke-miterlimit="10" stroke-opacity=".3" stroke-width="2.6644" d="m249.803 361.391 14.479 8.229 14.355.559-14.452-8.203-14.382-.585Z"/><path stroke="#fff" stroke-miterlimit="10" stroke-opacity=".3" stroke-width="2.6644" d="m278.694 373.611-13.435-11.668-15.487-3.984 13.435 11.668 15.487 3.984Z"/><path stroke="#fff" stroke-miterlimit="10" stroke-opacity=".3" stroke-width="2.6644" d="m250.684 354.496 11.34 14.882 15.761 7.697-11.34-14.881-15.761-7.698Z"/><path stroke="#fff" stroke-miterlimit="10" stroke-opacity=".3" stroke-width="2.6644" d="m275.795 380.315-8.139-17.588-14.988-11.471 8.14 17.615 14.987 11.444Z"/><path stroke="#fff" stroke-miterlimit="10" stroke-opacity=".3" stroke-width="2.6644" d="m255.735 348.498 3.885 19.555 13.083 15.02-3.886-19.53-13.082-15.045Z"/><path stroke="#fff" stroke-miterlimit="10" stroke-opacity=".3" stroke-width="2.6644" d="m268.559 385.117 1.316-20.473-9.992-18.19-1.315 20.498 9.991 18.165Z"/><path stroke="#fff" stroke-miterlimit="10" stroke-opacity=".3" stroke-width="2.6644" d="m264.973 345.434-7.225 20.157 5.719 20.572 7.252-20.183-5.746-20.546Z"/><path stroke="#fff" stroke-miterlimit="10" stroke-opacity=".3" stroke-width="2.6644" d="m257.637 385.977 13.604-18.427-.416-21.956-13.631 18.453.443 21.93Z"/><path stroke="#fff" stroke-miterlimit="10" stroke-opacity=".3" stroke-width="2.6644" d="m277.156 347.168-20.087 15.202-5.761 22.058 20.087-15.202 5.761-22.058Z"/><path stroke="#fff" stroke-miterlimit="10" stroke-opacity=".3" stroke-width="2.6644" d="m244.857 381.333 26.208-10.4 12.546-20.696-26.209 10.4-12.545 20.696Z"/><path stroke="#fff" stroke-miterlimit="10" stroke-opacity=".3" stroke-width="2.6644" d="m289.754 354.858-31.537 4.145-19.534 17.71 31.536-4.145 19.535-17.71Z"/><path stroke="#fff" stroke-miterlimit="10" stroke-opacity=".3" stroke-width="2.6644" d="m233.281 370.612 35.558 3.39 26.35-13.044-35.584-3.39-26.324 13.044Z"/><path stroke="#fff" stroke-miterlimit="10" stroke-opacity=".3" stroke-width="2.6644" d="m299.338 368.34-37.812-11.872-32.401 6.763 37.812 11.871 32.401-6.762Z"/><path stroke="#fff" stroke-miterlimit="10" stroke-opacity=".3" stroke-width="2.6644" d="m226.688 354.83 37.84 20.935 37.255.975-37.84-20.909-37.255-1.001Z"/><path stroke="#fff" stroke-miterlimit="10" stroke-opacity=".3" stroke-width="2.6644" d="m302.051 385.718-35.314-29.956-40.342-9.882 35.34 29.955 40.316 9.883Z"/><path stroke="#fff" stroke-miterlimit="10" stroke-opacity=".3" stroke-width="2.6644" d="m228.652 336.832 30.014 38.405 41.153 19.527-30.015-38.404-41.152-19.528Z"/><path stroke="#fff" stroke-miterlimit="10" stroke-opacity=".3" stroke-width="2.6644" d="m294.785 403.265-21.802-45.587-39.329-29.346 21.802 45.561 39.329 29.372Z"/><path stroke="#fff" stroke-miterlimit="10" stroke-opacity=".3" stroke-width="2.6644" d="m241.547 321.023 10.832 50.803 34.544 38.747-10.859-50.803-34.517-38.747Z"/><path stroke="#fff" stroke-miterlimit="10" stroke-opacity=".3" stroke-width="2.6644" d="m276.251 415.995 2.597-53.408-26.63-47.012-2.597 53.408 26.63 47.012Z"/><path stroke="#fff" stroke-miterlimit="10" stroke-opacity=".3" stroke-width="2.6644" d="m265.369 312.686-17.985 52.805 15.711 53.394 17.986-52.805-15.712-53.394Z"/><path stroke="#fff" stroke-miterlimit="10" stroke-opacity=".3" stroke-width="2.6644" d="m247.924 418.642 34.565-48.522-1.974-57.166-34.565 48.523 1.974 57.165Z"/><path stroke="#fff" stroke-miterlimit="10" stroke-opacity=".3" stroke-width="2.6644" d="m296.998 316.82-51.473 40.273-14.057 57.684 51.473-40.299 14.057-57.658Z"/><path stroke="#fff" stroke-miterlimit="10" stroke-opacity=".3" stroke-width="2.6644" d="m214.595 406.967 67.557-28.016 31.717-54.321-67.585 27.99-31.689 54.347Z"/><path stroke="#fff" stroke-miterlimit="10" stroke-opacity=".3" stroke-width="2.6644" d="m330.029 336.47-81.608 11.869-49.981 46.788 81.607-11.869 49.982-46.788Z"/><path stroke="#fff" stroke-miterlimit="10" stroke-opacity=".3" stroke-width="2.6644" d="m184.155 379.416 92.352 7.623 67.777-34.885-92.352-7.623-67.777 34.885Z"/><path stroke="#fff" stroke-miterlimit="10" stroke-opacity=".3" stroke-width="2.6644" d="M355.37 371.286 256.849 341.6l-83.78 18.685 98.521 29.712 83.78-18.711Z"/><path stroke="#fff" stroke-miterlimit="10" stroke-opacity=".3" stroke-width="2.6644" d="m166.42 338.485 98.978 53.263 96.648 1.338-98.978-53.263-96.648-1.338Z"/><path stroke="#fff" stroke-miterlimit="10" stroke-opacity=".3" stroke-width="2.6644" d="m363.113 416.453-92.791-76.907-104.966-24.404 92.791 76.881 104.966 24.43Z"/><path stroke="#fff" stroke-miterlimit="10" stroke-opacity=".3" stroke-width="2.6644" d="m170.819 291.494 79.336 99.09 107.496 49.493-79.336-99.09-107.496-49.493Z"/><path stroke="#fff" stroke-miterlimit="10" stroke-opacity=".3" stroke-width="2.6644" d="m344.975 462.411-58.357-118.053-103.149-75.173 58.357 118.028 103.149 75.198Z"/><path stroke="#fff" stroke-miterlimit="10" stroke-opacity=".3" stroke-width="2.6644" d="m203.613 249.864 30.136 132.016 91.074 99.826-30.109-131.99-91.101-99.852Z"/><path stroke="#fff" stroke-miterlimit="10" stroke-opacity=".3" stroke-width="2.6644" d="m297.386 496.233 4.629-139.245-70.961-121.624-4.602 139.244 70.934 121.625Z"/><path stroke="#fff" stroke-miterlimit="10" stroke-opacity=".3" stroke-width="2.6644" d="m265.07 227.382-44.532 138.19 42.855 138.617 44.532-138.19-42.855-138.617Z"/><path stroke="#fff" stroke-miterlimit="10" stroke-opacity=".3" stroke-width="2.6644" d="m224.06 504.032 87.724-127.587-7.379-148.907-87.752 127.588 7.407 148.906Z"/><path stroke="#fff" stroke-miterlimit="10" stroke-opacity=".3" stroke-width="2.6644" d="M347.274 237.074 215.37 343.754l-34.181 150.743 131.903-106.68 34.182-150.743Z"/><path stroke="#fff" stroke-miterlimit="10" stroke-opacity=".3" stroke-width="2.6644" d="m137.14 474.73 174.11-75.229 80.074-142.635-174.111 75.203L137.14 474.73Z"/><path stroke="#fff" stroke-miterlimit="10" stroke-opacity=".3" stroke-width="2.6644" d="m433.7 287.173-211.17 33.638L94.7352 444.423l211.1958-33.664L433.7 287.173Z"/><path stroke="#fff" stroke-miterlimit="10" stroke-opacity=".3" stroke-width="2.6644" d="m57.1367 403.967 239.7823 16.804 174.413-93.167L231.523 310.8 57.1367 403.967Z"/><path stroke="#fff" stroke-miterlimit="10" stroke-opacity=".3" stroke-width="2.6644" d="M500.834 377.1 244.16 302.978 27.6313 354.471l256.6467 74.148L500.834 377.1Z"/><path stroke="#fff" stroke-miterlimit="10" stroke-opacity=".3" stroke-width="2.6644" d="M9.4846 297.915 268.279 433.417l250.675.265-258.768-135.529-250.7014-.238Z"/><path stroke="#fff" stroke-miterlimit="10" stroke-opacity=".3" stroke-width="2.6644" d="M522.661 494.52 278.987 297.216 5.7774 237.077 249.478 434.381l273.183 60.139Z"/><path stroke="#fff" stroke-miterlimit="10" stroke-opacity=".3" stroke-width="2.6644" d="M19.0199 175.314 228.678 430.862l280.767 125.395-209.658-255.548L19.0199 175.314Z"/><path stroke="#fff" stroke-miterlimit="10" stroke-opacity=".3" stroke-width="2.6644" d="M477.467 614.858 321.429 309.194 50.9937 116.713 207.004 422.377l270.463 192.481Z"/><path stroke="#fff" stroke-miterlimit="10" stroke-opacity=".3" stroke-width="2.6644" d="M102.472 65.7327 185.814 408.73l240.182 257.133-83.342-342.998L102.472 65.7327Z"/><path stroke="#fff" stroke-miterlimit="10" stroke-opacity=".3" stroke-width="2.6644" d="m355.396 704.579 6.443-362.998-188.77-314.5633-6.47 362.9723 188.797 314.589Z"/><path stroke="#fff" stroke-miterlimit="10" stroke-opacity=".3" stroke-width="2.6644" d="M260.911 5.0926 150.938 366.683l116.586 359.795 110.001-361.564L260.911 5.0926Z"/></svg>