<svg width="906" height="1185" viewBox="0 0 906 1185" fill="none" xmlns="http://www.w3.org/2000/svg">
<path d="M896.672 255.212C842.378 216.753 782.199 185.556 717.803 167.613C664.327 152.738 607.027 147.649 553.259 164.033C529.172 171.526 506.423 182.788 485.861 197.4C465.276 211.896 444.807 228.949 431.961 250.974C404.809 297.566 425.922 352.424 447.69 396.507C474.155 449.778 508.049 499.105 539.423 549.42C555.264 574.623 570.642 600.062 584.347 626.419C600.28 657.654 613.969 689.982 625.312 723.161C637.086 756.672 648.442 790.339 657.616 824.942C665.253 853.489 671.487 882.799 672.196 912.469C673.149 951.395 664.033 991.059 639.686 1022.21C615.998 1052.45 581.036 1070.75 544.123 1079.41C496.048 1090.7 445.196 1087.19 397.17 1077.57C383.097 1074.77 369.184 1071.32 355.38 1067.47C353.574 1066.96 353.032 1069.83 354.809 1070.33C404.857 1084.32 457.604 1092.82 509.623 1087.92C548.695 1084.13 587.772 1072.54 618.636 1047.73C646.575 1024.82 665.45 992.715 671.882 957.162C681.99 904.883 669.114 851.307 654.224 801.263C634.832 736.259 612.598 671.166 579.92 611.533C550.791 558.328 516.15 508.405 484.724 456.56C469.551 432.196 455.83 406.958 443.629 380.979C433.918 359.558 425.415 337.008 422.677 313.638C420.888 298.99 422.35 284.129 426.959 270.11C431.567 256.092 439.208 243.262 449.339 232.532C466.967 213.751 487.492 197.918 510.133 185.634C559.621 158.118 616.779 151.796 672.209 160.594C734.547 170.469 794.336 195.54 848.343 227.505C864.181 236.856 879.598 246.877 894.594 257.569C896.108 258.646 898.06 256.472 896.523 255.361L896.672 255.212Z" fill="#632DAA"/>
<path d="M899.013 252.132C851.013 220.379 798.771 194.665 743.14 179.391C695.123 166.138 644.436 160.757 595.35 170.832C570.709 175.963 547.007 184.864 525.08 197.221C502.902 209.441 482.441 224.546 464.232 242.142C446.859 259.214 433.983 280.34 431.071 304.85C428.159 329.36 434.268 353.609 442.484 376.252C462.043 430.085 494.218 478.921 523.928 527.564C553.638 576.207 583.137 625.762 603.424 679.68C613.864 707.473 622.573 735.876 630.875 764.376C639.827 793.443 646.994 823.031 652.334 852.973C660.582 903.602 658.243 958.023 629.73 1002.32C578.622 1081.98 472.708 1088.94 388.329 1073.94C375.18 1071.59 362.161 1068.73 349.24 1065.38C347.405 1065.02 346.835 1067.88 348.669 1068.25C431.088 1089.36 534.671 1096.81 603.604 1036.87C638.411 1006.61 656.126 962.817 659.036 917.359C662.737 859.543 645.387 801.948 628.962 747.189C620.569 719.148 611.585 691.227 600.601 664.071C589.944 638.078 577.616 612.802 563.697 588.4C535.452 538.082 503.147 490.352 475.555 439.747C461.949 414.84 449.219 389.124 440.93 361.908C433.221 337.012 429.711 309.734 438.893 284.565C447.76 260.526 466.479 242.38 486.146 226.807C506.882 210.187 529.837 196.543 554.346 186.27C655.683 145.118 771.844 180.992 862.183 232.823C874.252 239.755 886.085 247.076 897.68 254.787C899.235 255.812 900.527 253.209 898.996 252.069L899.013 252.132Z" fill="#632DAA"/>
<path d="M901.704 249.241C815.083 196.243 706.819 158.872 605.129 185.175C580.861 191.622 557.619 201.45 536.088 214.37C514.97 226.616 495.282 241.177 477.388 257.782C460.409 273.92 447.125 293.653 443.123 317.201C439.19 340.256 443.814 363.733 450.814 385.598C467.621 437.989 497.846 485.692 525.457 532.904C553.757 581.296 580.922 629.85 598.79 683.198C607.922 710.373 615.393 738.112 622.371 765.931C629.725 793.747 635.206 822.024 638.777 850.573C644.347 899.984 638.762 952.149 611.061 994.61C588.408 1029.37 552.919 1053.18 513.607 1065.05C470.852 1077.91 424.996 1077.6 381.3 1071.08C368.397 1069.13 355.579 1066.61 342.876 1063.67C341.041 1063.3 340.471 1066.17 342.305 1066.53C422.578 1085.1 519.004 1087.64 584.706 1029.71C618.711 999.738 637.574 957.068 642.404 912.439C648.36 857.367 635.093 802.015 621.278 749.116C614.232 722.237 606.671 695.553 597.27 669.278C588.013 643.949 576.988 619.301 564.276 595.518C538.181 546.075 507.59 499.163 481.799 449.542C469.094 425.053 457.315 399.645 450.27 372.915C443.897 348.792 441.77 322.802 451.383 299.209C460.572 276.694 478.478 259.489 497.315 244.794C518.189 228.124 540.941 213.952 565.106 202.566C661.931 158.489 774.408 183.976 864.812 231.589C876.949 237.977 888.863 244.739 900.554 251.873C902.143 252.875 903.47 250.249 901.899 249.161L901.704 249.241Z" fill="#632DAA"/>
<path d="M904.367 246.345C817.251 197.479 711.018 168.915 613.053 200.459C589.914 208.142 567.808 218.643 547.234 231.726C526.718 244.113 507.434 258.435 489.645 274.495C473.508 289.549 460.292 307.895 455.354 329.707C450.205 352.282 453.884 376.018 460.214 397.957C474.91 448.826 503.18 495.276 528.703 541.298C541.706 564.744 554.681 588.185 566 612.607C577.251 636.741 586.586 661.724 593.917 687.323C601.633 714.127 607.911 741.42 613.478 768.69C619.251 795.365 623.067 822.426 624.895 849.658C627.576 898.165 618.71 948.546 590.888 989.224C568.232 1021.62 535.682 1045.8 498.121 1058.12C457.877 1071.69 414.337 1072.91 372.488 1067.74C360.353 1066.28 348.281 1064.21 336.283 1061.76C335.903 1061.68 335.509 1061.76 335.186 1061.98C334.864 1062.19 334.641 1062.53 334.565 1062.91C334.489 1063.29 334.568 1063.68 334.783 1064C334.998 1064.33 335.333 1064.55 335.713 1064.62C413.696 1080.62 503.126 1078.49 565.506 1022.58C598.147 993.321 617.689 952.931 624.779 910.123C633.476 857.444 624.251 803.939 612.999 752.385C607.226 725.849 600.943 699.33 592.804 673.455C584.777 648.173 574.816 623.547 563.008 599.794C539.287 551.599 510.623 505.935 487.172 457.733C476.003 434.652 465.762 410.802 459.956 385.778C454.392 361.936 453.383 336.466 463.604 313.709C473.281 292.185 490.896 275.697 509.321 261.575C529.276 245.982 550.578 232.193 572.975 220.372C616.73 198.144 665.576 187.855 714.58 190.542C767.969 193.123 820.614 208.28 868.687 231.287C880.303 236.847 891.8 242.711 903.028 249.028C904.662 249.949 905.989 247.323 904.372 246.316L904.367 246.345Z" fill="#632DAA"/>
<path d="M907.029 243.448C821.162 199.837 719.448 180.754 626.809 214.132C604.472 222.411 583.103 233.094 563.077 245.994C542.838 258.439 523.565 272.393 505.424 287.737C488.851 302.138 474.498 319.454 468.053 340.757C461.608 362.061 463.503 385.024 468.486 406.398C480.011 455.831 506.234 501.188 529.561 545.819C541.446 568.596 553.256 591.447 563.44 615.137C573.564 638.952 581.68 663.572 587.705 688.739C594.149 715.2 599.137 742.087 603.288 768.986C607.615 794.874 609.934 821.058 610.226 847.304C610.178 894.255 599.246 942.139 572.5 981.303C550.687 1013.03 519.747 1037.38 483.78 1051.13C445.869 1065.69 404.429 1068.5 364.26 1064.76C352.734 1063.69 341.258 1062.06 329.834 1060.03C327.999 1059.66 327.429 1062.53 329.263 1062.89C370.65 1070.24 413.585 1072.2 454.831 1062.89C489.574 1055.38 521.687 1038.74 547.857 1014.69C578.9 985.675 598.729 946.684 607.385 905.29C617.89 854.908 612.329 803.205 603.737 752.955C595.146 702.705 583.585 652.4 562.416 605.308C541.247 558.216 514.694 514.224 493.531 467.402C474.481 425.231 453.965 371.267 477.204 326.667C488.046 305.881 506.217 290.189 524.786 276.543C544.918 261.21 566.121 247.337 588.233 235.03C630.208 212.326 677.116 200.278 724.836 199.943C776.329 200.229 827.22 211.038 874.384 231.706C884.956 236.224 895.426 240.96 905.684 246.16C905.862 246.248 906.056 246.301 906.254 246.314C906.453 246.328 906.652 246.302 906.84 246.238C907.028 246.175 907.202 246.075 907.352 245.944C907.502 245.813 907.624 245.654 907.712 245.476C907.801 245.298 907.853 245.104 907.866 244.906C907.88 244.708 907.854 244.509 907.791 244.32C907.727 244.132 907.627 243.958 907.496 243.808C907.366 243.659 907.207 243.536 907.029 243.448Z" fill="#632DAA"/>
<path d="M909.686 240.579C824.792 202.109 726.555 192.805 639.07 228.432C617.312 237.534 596.466 248.68 576.813 261.719C556.794 274.357 537.539 288.165 519.148 303.072C503.21 316.378 488.741 332.181 481.033 351.743C473.126 371.862 473.243 394.174 476.925 415.198C485.464 463.769 509.955 508.543 531.218 552.465C541.761 574.349 552.275 596.376 560.997 619.179C569.911 642.918 576.674 667.411 581.204 692.361C585.898 717.133 589.371 742.348 591.968 767.477C595.011 793.177 595.884 819.087 594.578 844.934C591.416 890.758 579.348 936.42 552.979 974.586C531.914 1005.36 502.609 1029.58 468.42 1044.47C433.267 1059.55 394.59 1063.89 356.647 1061.7C345.418 1061.07 334.224 1059.83 323.075 1058.21C321.241 1057.84 320.67 1060.71 322.505 1061.07C361.878 1066.85 402.525 1067.29 441.202 1056.96C474.054 1048.23 504.151 1031.31 528.674 1007.77C558.823 978.759 578.957 940.781 589.081 900.395C601.216 852.155 599.169 802.105 593.284 753.079C587.399 704.053 578.986 655.746 560.535 609.969C542.084 564.193 517.296 520.91 498.479 475.18C481.16 432.996 465.11 380.695 490.936 338.518C502.983 318.865 521.384 304.262 539.798 290.943C559.211 276.55 579.349 263.164 600.135 250.837C640.752 227.132 686.243 213.012 733.144 209.552C782.571 206.543 832.078 213.96 878.453 231.323C888.526 235.057 898.554 238.87 908.353 243.234C910.073 244.024 911.4 241.397 909.697 240.522L909.686 240.579Z" fill="#632DAA"/>
<path d="M912.348 237.683C828.663 204.519 733.466 205.386 651.388 242.594C630.521 252.332 610.474 263.738 591.441 276.699C571.932 289.682 552.252 302.928 533.919 317.485C518.043 330.028 503.207 344.685 494.392 363.074C485.279 381.909 483.608 403.478 485.908 423.96C491.322 471.611 513.99 515.962 533.098 559.187C542.887 580.518 551.541 602.352 559.024 624.598C566.235 647.763 571.327 671.536 574.237 695.623C585.956 787.348 588.502 888.332 533.824 967.675C513.655 997.448 486.142 1021.51 453.948 1037.53C421.305 1053.32 384.957 1059.14 348.94 1058.35C338.137 1058.13 327.361 1057.33 316.614 1056.09C314.745 1055.89 314.175 1058.76 316.043 1058.95C353.599 1063.24 392.215 1062.19 428.501 1050.7C459.219 1040.84 487.134 1023.78 509.921 1000.94C538.158 972.117 558.83 936.761 570.096 898.017C584.056 851.988 585.679 803.711 582.804 756.029C579.929 708.347 574.893 661.04 559.303 616.012C543.712 570.984 521.052 528.988 504.533 484.431C488.722 441.713 476.718 390.039 505.608 349.99C518.321 332.378 535.772 319.105 553.327 306.658C573.116 292.718 592.904 278.48 613.68 265.87C653.016 241.152 697.205 225.177 743.254 219.027C789.302 212.878 836.135 216.697 880.578 230.227C890.88 233.261 901.171 236.352 911.17 240.309C912.907 241.013 914.228 238.415 912.514 237.597L912.348 237.683Z" fill="#632DAA"/>
<path d="M914.632 234.741C894.616 228.313 873.975 224.025 853.055 221.948C831.587 219.524 809.934 219.206 788.404 220.998C745.481 224.909 703.678 236.866 665.179 256.245C645.427 266.301 626.384 277.693 608.184 290.341C588.921 303.283 569.802 316.403 551.24 330.169C535.375 341.91 520.17 355.272 509.6 372.149C499.284 389.637 494.249 409.735 495.101 430.02C495.946 475.629 516.114 519.066 532.493 560.735C541.233 581.761 548.751 603.274 555.007 625.168C560.898 648.129 564.608 671.594 566.087 695.252C572.703 784.769 567.857 880.974 516.759 958.05C497.556 987.77 471.554 1012.49 440.902 1030.17C410.502 1047.12 376.018 1054.65 341.396 1055.39C330.953 1055.6 320.568 1055.23 310.096 1054.4C308.25 1054.24 307.651 1057.1 309.525 1057.27C345.549 1060.12 382.336 1057.49 416.317 1044.7C445.554 1033.41 471.815 1015.57 493.086 992.552C520.248 963.073 540.582 927.972 552.643 889.746C567.028 845.618 571.295 799.179 571.075 752.979C570.873 707.438 568.687 661.234 555.831 617.287C542.711 572.423 521.191 530.535 507.848 485.746C501.299 463.852 496.584 440.685 498.386 417.712C499.854 396.108 508.421 375.594 522.753 359.362C536.952 343.118 554.862 330.98 572.578 318.624C591.966 305.051 611.17 291.204 631.201 278.594C669.104 254.791 711.052 236.71 755.124 228.319C798.264 220.065 842.629 220.624 885.547 229.965C895.235 231.903 904.812 234.357 914.239 237.314C915.993 237.932 916.564 235.066 914.81 234.448L914.632 234.741Z" fill="#632DAA"/>
<path d="M917.306 231.786C899.454 226.862 880.029 225.35 861.58 224.628C840.679 223.854 819.752 225.076 799.083 228.279C757.36 235.058 717.099 248.9 680.029 269.213C660.461 279.986 641.543 291.901 623.374 304.896C604.927 317.732 586.539 330.57 568.211 343.41C552.105 354.716 536.258 367.265 524.535 383.197C513.13 398.989 506.433 417.688 505.218 437.129C501.791 481.143 519.093 523.86 533.029 564.626C540.662 585.526 546.867 606.921 551.6 628.662C555.683 651.138 557.698 673.941 557.618 696.784C558.495 783.848 546.87 875.486 498.658 950.037C479.972 978.946 455.896 1005.29 426.557 1023.65C397.784 1041.1 365.065 1050.99 331.443 1052.39C322.01 1052.93 312.565 1052.93 303.108 1052.53C301.245 1052.46 301.471 1055.37 303.311 1055.55C337.884 1057.01 372.927 1052.66 404.763 1038.53C432.489 1025.72 457.095 1007.03 476.87 983.752C532.972 919.561 553.996 834.294 558.797 751.042C561.335 706.851 562.331 661.876 552.227 618.626C542.123 575.375 522.668 534.047 512.804 490.338C507.935 468.838 505.496 446.213 509.751 424.384C513.808 404.034 524.014 385.42 538.989 371.056C554.272 355.803 572.567 344.277 590.186 331.962C609.041 318.819 627.604 305.202 646.861 292.587C682.89 268.351 722.596 250.093 764.446 238.518C805.69 227.471 848.696 224.593 891.044 230.045C899.707 230.96 908.297 232.471 916.753 234.567C918.587 234.932 919.158 232.066 917.323 231.7L917.306 231.786Z" fill="#632DAA"/>
<path d="M919.969 228.889C911.8 227.494 903.522 226.844 895.236 226.946C885.756 226.668 876.277 226.689 866.809 227.248C847.774 228.397 828.867 231.112 810.277 235.364C769.879 244.958 731.158 260.586 695.418 281.721C657.875 303.42 624.212 330.927 588.132 354.854C571.934 365.575 555.839 376.972 542.561 391.284C529.531 405.308 520.599 422.639 516.736 441.388C507.64 483.797 522.048 526.981 533.353 567.491C539.689 588.262 544.43 609.487 547.533 630.981C549.876 652.866 550.175 674.921 548.425 696.861C542.812 781.501 526.586 868.558 481.032 941.433C463.159 969.997 440.855 996.875 413.259 1016.5C386.819 1035 356.034 1046.33 323.91 1049.37C314.91 1050.29 305.87 1050.73 296.825 1050.72C294.951 1050.7 295.177 1053.61 297.028 1053.74C329.794 1053.79 362.297 1047.98 391.622 1033.14C418.46 1019.56 440.995 999.167 459.967 976.007C513.019 911.269 536.728 828.383 546.516 746.571C551.527 704.779 555.809 662.008 548.927 620.084C541.81 576.951 524.234 536.206 518.532 492.848C515.68 471.095 516.296 448.839 523.607 427.976C530.467 408.484 543.726 392.917 559.338 379.755C574.949 366.592 592.552 355.704 609.368 343.825C627.524 331.05 645.308 317.754 663.597 305.214C731.012 259.038 810.447 227.173 893.198 229.55C901.95 229.499 910.689 230.241 919.306 231.767C919.687 231.843 920.081 231.764 920.403 231.549C920.726 231.334 920.949 230.999 921.025 230.619C921.1 230.239 921.022 229.845 920.807 229.522C920.591 229.2 920.257 228.977 919.877 228.901L919.969 228.889Z" fill="#632DAA"/>
<path d="M922.631 225.993C915.049 225.194 907.399 225.323 899.849 226.375C891.316 227.179 882.852 228.087 874.416 229.447C856.088 232.442 837.997 236.737 820.279 242.301C781.667 254.839 744.815 272.257 710.617 294.133C675.035 316.311 642.918 343.232 608.002 366.557C591.723 377.381 575.169 387.793 560.675 401.028C546.342 413.674 535.469 429.764 529.082 447.779C515.191 487.625 525.294 529.683 533.572 569.531C538.3 589.909 541.359 610.638 542.719 631.513C543.35 652.773 541.939 674.046 538.508 695.037C525.998 777.648 506.577 861.149 462.93 933.272C445.866 961.52 425.052 988.843 399.297 1009.7C375.249 1028.98 346.542 1041.58 316.072 1046.23C307.475 1047.53 298.815 1048.37 290.128 1048.73C288.266 1048.8 288.458 1051.73 290.332 1051.75C321.773 1050.38 352.721 1042.95 379.947 1026.83C405.042 1011.98 425.581 990.825 443.109 967.884C492.654 902.805 518.234 822.944 533.194 743.443C540.722 703.374 548.456 662.273 544.98 621.355C541.359 579.663 526.512 539.58 525.11 497.674C523.977 475.688 528.451 453.775 538.113 433.993C547.112 416.326 562.27 402.448 577.957 390.702C594.217 378.473 611.757 368.049 628.321 356.239C644.885 344.428 661.769 331.46 678.642 319.294C743.306 272.719 817.809 236.744 898.098 229.632C906.031 228.475 914.074 228.275 922.055 229.037C923.889 229.402 924.488 226.541 922.625 226.171L922.631 225.993Z" fill="#632DAA"/>
<path d="M925.288 223.125C918.425 222.772 911.553 223.613 904.978 225.608C897.535 227.523 890.063 229.135 882.677 231.211C865.451 236.034 848.51 241.824 831.936 248.555C794.931 263.949 759.624 283.144 726.584 305.833C692.67 328.612 661.665 355.486 627.866 378.288C597.337 399.029 561.751 417.333 544.302 451.553C535.357 469.306 530.353 488.78 529.631 508.645C528.704 529.319 531.623 549.983 534.129 570.476C537.03 590.002 538.325 609.733 538.001 629.471C536.891 650.134 533.806 670.643 528.789 690.719C509.949 770.401 487.791 850.586 446.964 922.167C430.553 950.874 411.425 979.158 387.128 1001.82C365.364 1022.25 338.518 1036.46 309.392 1042.97C300.923 1044.78 292.349 1046.06 283.719 1046.8C283.319 1046.82 282.945 1047.01 282.681 1047.31C282.417 1047.61 282.284 1048.01 282.311 1048.41C282.338 1048.81 282.523 1049.18 282.825 1049.45C283.127 1049.71 283.522 1049.84 283.922 1049.82C314.193 1047.51 343.353 1037.41 368.57 1020.51C392.311 1004.08 411.164 981.818 427.586 958.298C473.862 891.973 500.51 814.232 520.538 736.514C530.27 698.701 541.101 660.154 541.208 620.842C541.302 579.949 528.908 539.372 533.392 498.429C535.377 477.139 542.95 456.752 555.346 439.33C566.715 424.131 581.978 412.271 597.506 401.625C614.036 390.285 631.14 379.952 647.32 368.125C663.5 356.298 679.53 343.577 695.785 331.228C757.388 284.759 826.352 246.519 902.047 229.256C909.725 227.506 916.744 225.328 924.723 225.962C926.574 226.092 927.173 223.232 925.293 223.096L925.288 223.125Z" fill="#632DAA"/>
<path d="M927.566 220.211C920.9 220.409 914.361 222.078 908.416 225.101C901.536 228.081 894.517 230.707 887.643 233.659C872.422 240.264 857.336 247.343 842.385 254.895C807.027 273.31 773.166 294.466 741.113 318.171C708.896 341.556 679.032 368.239 646.183 390.903C616.228 411.609 580.153 428.177 559.233 459.323C548.454 475.457 541.165 493.666 537.836 512.781C534.524 531.669 535.034 550.96 535.401 569.925C535.792 589.818 536.114 609.757 533.141 629.487C529.965 649.269 525.044 668.731 518.436 687.645C492.778 763.706 468.795 840.786 430.322 911.614C414.611 940.549 396.985 969.52 374.518 993.773C354.841 1015.51 329.585 1031.45 301.491 1039.85C293.469 1042.13 285.299 1043.85 277.041 1045.02C275.201 1045.28 275.393 1048.21 277.215 1048.03C306.326 1044.21 333.859 1032.58 356.89 1014.37C379.288 996.301 396.53 972.856 411.902 948.77C455.123 881.33 482.322 805.457 507.431 729.912C519.61 693.272 533.974 656.441 537.514 617.694C541.055 578.947 533.172 539.356 543.356 501.216C548.367 481.559 558.114 463.427 571.746 448.405C584.91 434.368 601.022 423.332 617.198 413.024C633.958 402.325 650.597 391.781 666.479 379.805C682.361 367.829 697.44 355.396 712.841 343.294C744.593 317.882 778.12 294.772 813.167 274.139C843.723 256.811 875.41 241.555 908.013 228.477C914.699 225.725 920.313 223.118 927.787 223.146C929.661 223.161 929.44 220.227 927.583 220.125L927.566 220.211Z" fill="#632DAA"/>
<path d="M930.228 217.315C924.063 217.847 918.173 220.103 913.229 223.824C907.604 227.68 901.549 231.004 895.724 234.523C881.444 243.093 867.175 251.755 853.124 260.669C819.926 281.958 787.82 304.905 756.93 329.424C726.089 353.679 697.13 380.453 665.153 403.23C634.809 424.843 598.796 440.35 574.195 469.184C562.315 483.382 553.274 499.73 547.566 517.34C541.61 535.285 539.742 553.954 537.753 572.628C536.201 591.672 533.061 610.552 528.365 629.073C522.922 647.923 516.089 666.343 507.921 684.181C476.006 756.047 450.284 830.635 414.195 900.568C386.654 954.055 354.093 1014.8 294.186 1036.72C286.471 1039.52 278.56 1041.74 270.516 1043.36C268.688 1043.72 268.88 1046.64 270.691 1046.38C298.573 1040.95 324.383 1027.84 345.209 1008.53C366.592 988.53 382.416 963.372 396.984 938.382C436.949 869.489 464.826 794.853 495.192 721.487C509.305 687.407 526.302 653.96 534.207 617.691C542.317 580.39 539.535 540.921 555.298 505.441C563.111 487.482 574.714 471.425 589.31 458.367C604.179 445.954 620.114 434.877 636.93 425.265C653.614 415.201 669.691 404.163 685.077 392.208C700.283 380.336 714.903 367.662 729.753 355.332C760.575 329.822 792.264 305.2 825.359 282.645C853.339 263.631 882.438 246.33 911.308 228.835C917.655 224.943 922.557 221.122 930.357 220.558C930.757 220.531 931.131 220.346 931.395 220.044C931.659 219.742 931.792 219.347 931.765 218.947C931.738 218.546 931.553 218.173 931.251 217.909C930.949 217.644 930.554 217.511 930.154 217.538L930.228 217.315Z" fill="#632DAA"/>
<path d="M932.868 214.532C926.956 215.417 921.516 218.271 917.429 222.633C912.39 227.59 906.869 231.974 901.4 236.398C888.766 246.726 875.845 256.699 862.976 266.712C831.58 291.064 800.854 316.385 770.611 342.129C741.192 367.173 713.145 394.159 681.901 416.844C651.609 438.943 615.842 453.815 588.809 480.347C575.89 493.353 565.276 508.46 557.419 525.023C549.845 540.768 545.545 557.433 541.176 574.293C536.739 592.636 530.89 610.609 523.682 628.051C516.132 645.115 507.676 661.764 498.35 677.926C459.846 745.768 432.369 819.143 398.126 889.085C383.321 919.303 368.27 950.157 349.101 977.897C332.651 1001.71 311.906 1022.25 285.111 1033.96C278.17 1036.97 271.013 1039.45 263.7 1041.38C261.872 1041.88 262.843 1044.64 264.642 1044.13C291.871 1036.86 316.361 1021.75 335.063 1000.67C354.885 978.482 369.137 951.79 382.782 925.602C419.541 855.595 447.947 781.749 483.725 711.278C500.23 678.807 520.216 647.713 532.604 613.17C544.74 579.293 548.684 543.01 567.844 511.871C577.763 495.51 590.627 481.128 605.786 469.453C621.435 458.026 637.759 447.554 654.669 438.092C687.251 418.862 715.219 393.917 743.521 369.097C774.164 342.24 805.227 315.825 837.173 290.36C863.403 269.508 890.689 249.79 915.938 227.73C921.435 222.865 925.375 218.345 932.933 217.197C934.778 216.909 934.586 213.981 932.73 214.177L932.868 214.532Z" fill="#632DAA"/>
<path d="M935.18 211.596C929.087 213.141 923.839 217.003 920.552 222.362C916.53 227.594 912.23 232.606 907.671 237.378C896.609 249.39 884.899 260.766 873.045 271.964C844.717 298.864 815.965 325.352 787.292 351.886C758.62 378.42 730.946 406.225 699.915 429.637C669.434 452.682 633.358 467.313 604.093 491.882C590.849 503.31 579.247 516.512 569.615 531.116C560.537 545.225 552.737 560.116 546.307 575.612C530.939 610.158 510.512 641.521 488.653 672.301C444.207 734.968 415.072 806.642 382.799 875.964C368.293 907.075 354.344 938.834 337.045 968.555C322.551 993.471 304.186 1016.28 278.591 1030.34C271.729 1034.06 264.558 1037.18 257.159 1039.66C256.83 1039.81 256.57 1040.08 256.428 1040.41C256.285 1040.75 256.272 1041.12 256.389 1041.46C256.506 1041.81 256.746 1042.09 257.062 1042.27C257.379 1042.44 257.749 1042.49 258.101 1042.41C284.766 1033.13 307.95 1015.91 324.539 993.062C342.84 968.487 355.6 940.157 368.734 912.646C385.609 877.268 401.882 841.621 418.315 806.066C434.424 770.089 452.689 735.116 473.01 701.339C492.279 670.103 515.453 641.253 533.104 609.009C541.607 593.538 548.355 577.301 555.71 561.304C563.172 545.186 572.713 530.115 584.091 516.476C595.953 502.286 609.84 489.92 625.305 479.775C641.572 469.008 658.873 459.936 675.553 449.788C707.487 430.37 734.555 404.56 761.842 379.299C791.528 351.865 821.064 324.282 850.699 296.807C874.635 274.754 899.747 252.636 920.414 227.25C925.142 221.457 928.25 216.176 936.117 214.375C937.962 213.938 936.991 211.182 935.152 211.59L935.18 211.596Z" fill="#632DAA"/>
<path d="M937.866 208.733C934.933 209.695 932.237 211.266 929.954 213.343C927.672 215.421 925.854 217.957 924.621 220.787C921.273 226.99 917.534 232.974 913.427 238.702C903.835 252.162 893.531 265.101 882.559 277.462C856.83 307.025 829.541 335.443 801.889 363.134C774.238 390.825 747.196 419.351 716.475 443.302C685.754 467.253 649.958 481.522 618.869 504.327C604.304 515.322 591.059 527.964 579.398 542.001C569.1 554.7 559.5 567.948 550.64 581.689C540.603 595.989 529.666 609.637 517.895 622.549C505.242 636.717 492.869 651.119 480.291 665.362C429.896 722.286 398.634 792.97 367.914 861.677C353.518 893.883 340.464 926.833 325.001 958.559C312.159 984.906 296.054 1010.43 271.213 1026.99C264.724 1031.24 257.847 1034.86 250.676 1037.81C248.951 1038.53 249.974 1041.33 251.647 1040.56C278.184 1029.4 298.403 1009.85 313.529 985.656C330.515 958.405 341.983 927.881 354.714 898.502C370.333 862.546 386.377 826.854 403.596 791.544C420.815 756.235 439.473 722.523 462.84 691.358C484.638 662.234 510.56 636.494 533.844 608.59C544.647 595.633 553.764 581.714 563.288 567.847C573.174 553.423 584.385 539.953 596.774 527.611C610.272 514.275 625.329 502.616 641.618 492.884C658.35 482.776 675.931 474.088 692.525 463.774C724.379 444.011 751.051 417.497 777.655 391.326C806.461 363.071 834.602 334.166 862.078 304.613C884.322 280.584 907.121 255.861 924.134 227.722C928.22 220.967 930.57 214.104 938.792 211.569C940.602 211.006 939.631 208.25 937.849 208.819L937.866 208.733Z" fill="#632DAA"/>
<path d="M940.528 205.836C937.699 207.003 935.164 208.783 933.106 211.047C931.048 213.312 929.517 216.005 928.625 218.932C926.082 225.56 923.18 232.045 919.931 238.358C912.062 253.089 903.17 267.25 893.32 280.737C869.968 312.819 844.748 343.498 817.791 372.616C791.43 401.458 764.595 431.039 734.247 455.809C719.177 467.893 702.994 478.52 685.916 487.547C668.896 496.705 651.613 505.541 635.277 515.907C606.494 534.165 582.417 559.021 559.216 583.664C546.362 597.196 531.556 608.403 516.895 619.936C502.233 631.47 488.437 643.145 475.209 655.709C462.03 667.811 449.689 680.796 438.272 694.573C426.432 709.518 415.464 725.133 405.423 741.342C395.26 758.143 386.011 775.479 377.714 793.276C368.985 811.086 360.748 829.113 352.867 847.3C338.415 880.686 326.187 914.873 312.515 948.535C300.975 976.571 287.125 1004.98 262.79 1024.1C256.895 1028.69 250.569 1032.7 243.9 1036.07C242.238 1036.93 243.868 1039.37 245.529 1038.51C272.059 1024.99 290.235 1002.23 303.398 976.071C318.633 945.789 328.891 913.117 341.597 881.767C356.293 845.508 372.239 809.707 390.186 774.93C408.133 740.153 429.223 707.402 455.727 678.887C480.84 651.824 510.21 629.72 538.679 606.453C551.103 595.732 562.883 584.286 573.958 572.176C586.485 559.329 599.664 547.133 613.442 535.637C643.061 510.633 679.419 496.981 711.713 476.055C743.188 455.502 769.252 428.301 795.116 401.357C822.966 372.216 849.744 342.027 874.783 310.39C895.134 284.495 915.988 256.971 929.039 226.285C932.075 219.112 933.616 211.82 941.5 208.592C943.247 207.897 942.19 205.124 940.557 205.842L940.528 205.836Z" fill="#632DAA"/>
<path d="M943.191 202.94C940.463 204.321 938.078 206.296 936.214 208.72C934.35 211.144 933.052 213.955 932.418 216.946C930.229 224.496 928.213 231.932 925.36 239.379C919.009 255.436 911.348 270.943 902.454 285.744C881.393 320.742 857.447 353.92 830.864 384.933C805.68 414.902 779.424 445.314 749.352 470.496C734.603 482.74 718.591 493.378 701.587 502.229C683.846 511.57 665.76 520.247 648.346 530.189C617.677 547.744 591.22 571.53 562.731 592.201C548.132 602.823 531.788 610.386 515.931 618.642C499.025 627.551 482.87 637.818 467.627 649.344C453.541 659.68 440.303 671.124 428.038 683.567C414.882 697.581 402.805 712.568 391.909 728.402C381.246 744.146 371.695 760.615 363.326 777.689C354.344 795.171 346.025 812.962 338.369 831.065C323.694 865.421 312.058 900.679 300.33 936.098C290.505 965.847 279.26 997.041 256.304 1019.41C250.549 1025 244.182 1029.92 237.324 1034.08C235.726 1035.07 237.361 1037.48 238.954 1036.52C265.166 1020.4 281.178 994.592 292.42 966.705C305.618 933.932 314.711 899.628 327.243 866.604C341.079 829.721 357.525 793.871 376.457 759.326C394.61 725.715 418.36 695.446 446.686 669.818C461.303 657.223 476.845 645.744 493.182 635.479C508.292 625.733 524.372 617.849 540.063 609.53C554.692 601.374 568.588 591.967 581.595 581.414C596.188 570.076 611.033 559.115 625.936 548.166C657.345 525.097 694.593 512.219 726.984 490.806C758.344 470.23 784.075 442.157 809.038 414.349C836.726 383.822 862.312 351.453 885.622 317.465C904.527 289.553 922.553 259.768 932.496 227.331C934.999 219.248 935.563 209.825 944.025 205.788C945.709 204.961 944.743 202.176 943.088 203.009L943.191 202.94Z" fill="#632DAA"/>
<path d="M945.521 200.215C939.168 203.986 936.858 210.052 935.644 217.051C934.224 225.231 932.684 233.268 930.462 241.288C925.276 259.102 918.49 276.411 910.187 293.003C891.45 330.365 868.919 365.701 842.952 398.453C830.003 415.154 816.355 431.329 802.333 446.983C789.843 461.414 776.329 474.926 761.896 487.414C747.241 499.615 731.229 510.086 714.177 518.62C696.366 527.709 678.125 535.967 660.378 545.188C628.098 562.005 598.923 584.475 566.172 600.513C549.335 608.753 531.108 613.349 513.438 619.337C478.899 631.376 446.821 649.563 418.754 673.018C404.747 685.422 391.92 699.099 380.438 713.872C356.194 744.356 338.523 780.44 323.374 816.131C308.875 851.423 296.849 887.68 287.383 924.641C278.896 956.355 270.256 990.481 248.334 1016.03C243.091 1022.2 237.132 1027.71 230.582 1032.47C229.076 1033.6 230.677 1036.03 232.212 1034.91C257.785 1016.16 271.405 987.7 280.686 958.141C292.047 922.47 299.94 885.96 312.74 850.695C338.98 778.743 375.936 704.454 440.493 659.616C456.637 648.489 473.773 638.873 491.681 630.889C508.771 623.176 526.808 618.334 544.518 612.294C560.395 606.608 575.646 599.31 590.034 590.513C606.388 580.955 622.627 571.077 638.597 560.906C671.223 540.106 708.66 527.921 740.942 506.605C773.225 485.289 799.034 456.07 823.543 426.95C850.505 395.336 874.694 361.46 895.843 325.697C913.925 294.731 930.234 261.296 937.079 225.859C938.791 217.26 938.684 207.615 947.093 202.644C948.715 201.685 947.085 199.245 945.463 200.204L945.521 200.215Z" fill="#632DAA"/>
<path d="M948.178 197.347C941.648 201.858 939.947 208.76 939.168 216.412C938.397 224.781 937.55 233.075 935.988 241.375C932.308 260.305 926.832 278.841 919.636 296.732C903.52 336.383 882.677 373.945 857.559 408.601C845.104 426.265 831.623 443.248 817.579 459.761C805.765 474.108 792.935 487.587 779.188 500.094C764.536 513.099 748.245 524.131 730.731 532.91C712.296 542.143 693.35 550.201 674.691 558.913C640.787 574.751 608.9 594.835 573.319 606.972C554.486 613.414 534.687 615.581 515.186 619.239C495.767 622.808 476.789 628.461 458.582 636.101C424.528 650.229 394.123 671.899 369.656 699.479C343.302 728.888 324.421 763.867 308.784 800.057C293.577 836.435 281.966 874.213 274.116 912.853C266.869 946.72 260.959 983.595 240.577 1012.49C235.865 1019.15 230.375 1025.22 224.225 1030.57C222.822 1031.78 224.423 1034.22 225.855 1033.01C250.714 1011.41 261.592 980.116 269.123 949.016C273.525 930.792 277.045 912.363 281.246 894.099C285.84 874.252 291.518 854.672 298.254 835.446C323.926 762.159 364.757 688.314 435.481 650.364C453.495 640.676 472.512 632.981 492.194 627.416C511.572 621.976 531.607 619.974 551.268 615.962C586.709 608.713 620.187 591.122 651.642 573.813C686.413 554.661 725.347 542.893 758.235 520.327C789.927 498.536 815.168 468.578 838.783 438.565C865.24 405.37 888.192 369.526 907.271 331.607C923.901 298.058 937.726 261.685 941.434 224.193C942.314 215.429 941.743 205.423 949.796 199.845C951.32 198.777 949.719 196.343 948.161 197.433L948.178 197.347Z" fill="#632DAA"/>
<path d="M950.84 194.45C944.912 199.23 943.262 205.725 942.85 213.033C942.326 222.702 942.352 232.302 941.295 241.955C939.029 261.549 934.892 280.881 928.94 299.686C915.499 341.51 896.43 381.311 872.257 417.993C860.089 436.739 846.957 454.843 832.915 472.23C821.286 487.178 808.53 501.215 794.761 514.218C779.716 528.077 762.752 539.694 744.391 548.71C725.675 557.857 706.322 565.566 687.135 573.637C650.646 588.99 615.232 607.478 576.014 615.136C556.422 618.954 536.5 619.041 516.516 620.189C495.953 621.332 475.578 624.741 455.762 630.355C419.269 640.574 385.9 659.73 358.673 686.089C329.934 714.308 309.505 748.979 293.457 785.743C277.69 822.878 266.576 861.82 260.368 901.683C254.423 937.538 251.215 976.56 232.755 1008.67C228.519 1016.06 223.366 1022.88 217.42 1028.98C216.108 1030.33 218.311 1032.14 219.599 1030.9C243.848 1005.93 251.691 971.172 257.415 938.074C260.818 918.281 263.551 898.414 267.47 878.723C271.49 858.293 276.93 838.168 283.749 818.495C296.908 780.53 314.881 742.48 339.897 710.809C364.121 679.876 396.115 655.923 432.618 641.392C452.478 633.453 473.232 627.968 494.421 625.058C514.908 622.431 535.558 622.727 556.08 620.823C594.546 617.246 631.287 602.27 665.918 586.07C702.05 569.216 741.379 557.705 774.175 534.555C805.969 512.099 830.94 480.955 853.791 449.836C879.477 415.226 901.005 377.716 917.931 338.079C933.04 301.992 944.117 263.404 945.439 224.126C945.763 214.864 944.234 203.386 952.407 196.908C953.856 195.766 952.254 193.331 950.771 194.496L950.84 194.45Z" fill="#632DAA"/>
<path d="M953.221 191.766C946.853 197.56 946.162 205.975 946.336 214.233C946.557 224.349 946.91 234.401 946.415 244.523C945.217 265.432 942.035 286.18 936.912 306.488C925.736 349.989 908.264 391.625 885.049 430.074C873.108 450.076 859.997 469.356 845.785 487.813C834.346 503.102 821.651 517.41 807.831 530.586C792.534 544.839 775.109 556.621 756.184 565.509C737.354 574.335 717.799 581.707 698.36 588.952C659.962 603.419 622.086 619.003 580.778 622.789C559.861 624.585 538.848 622.965 517.905 622.193C496.292 621 474.613 622.15 453.247 625.623C415.347 632.352 379.299 647.436 349.565 672.119C318.462 697.99 296.221 731.734 279.559 768.435C262.566 806.586 251.487 847.105 246.703 888.594C242.028 927.056 241.607 968.688 225.157 1004.48C221.449 1012.62 216.695 1020.25 211.016 1027.17C209.802 1028.63 212.011 1030.56 213.196 1029.09C236.748 1000.59 241.407 962.212 245.483 926.76C247.848 905.449 249.806 884.087 253.534 862.957C257.101 842.105 262.353 821.576 269.239 801.572C276.156 781.722 284.757 762.499 294.949 744.115C304.602 725.997 316.511 709.174 330.391 694.048C357.476 664.736 392.408 643.817 431.035 633.776C452.298 627.858 474.252 624.783 496.323 624.632C517.615 624.4 538.88 626.547 560.189 626.528C600.698 626.456 640.228 614.985 677.542 599.975C714.856 584.965 755.521 573.78 788.827 549.867C821.331 526.539 846.341 493.853 868.674 461.141C893.817 424.72 914.057 385.148 928.871 343.445C942.298 304.878 950.651 263.96 949.536 223.005C949.269 213.119 947.195 201.234 955.338 193.856C956.724 192.582 954.504 190.71 953.136 191.898L953.221 191.766Z" fill="#632DAA"/>
<path d="M955.878 188.898C949.597 195.305 949.347 204.195 949.894 212.677C950.58 223.153 951.695 233.566 951.659 244.077C951.75 266.451 949.691 288.781 945.508 310.761C936.815 355.596 921.305 398.835 899.517 438.973C888.496 459.386 876.15 479.056 862.559 497.856C851.051 514.321 838.12 529.744 823.915 543.948C808.925 558.687 791.575 570.815 772.583 579.828C752.957 588.682 732.837 596.397 712.323 602.935C691.57 609.889 670.95 617.227 649.617 622.158C628.904 627.09 607.719 629.777 586.431 630.171C563.763 630.427 541.328 626.974 518.882 624.324C496.972 621.368 474.829 620.523 452.757 621.8C413.087 624.691 373.93 636.236 341.059 659.014C307.083 682.555 282.543 715.722 264.89 752.762C246.933 791.259 235.953 832.637 232.46 874.972C230.469 896.954 229.635 919.106 228.01 941.041C226.384 961.188 223.916 981.674 216.958 1000.76C213.827 1009.44 209.603 1017.68 204.389 1025.28C203.313 1026.8 205.487 1028.75 206.569 1027.21C228.834 995.139 230.401 953.883 232.573 916.175C233.881 893.581 235.058 870.901 238.591 848.511C241.947 827.07 247.29 805.988 254.552 785.538C268.489 746.357 289.556 707.135 320.749 679.017C351.565 651.448 389.752 633.461 430.633 627.26C453.646 623.722 477.01 623.058 500.187 625.282C522.443 627.238 544.524 631.127 566.849 632.591C609.292 635.377 651.042 626.822 691.086 613.219C729.875 600.082 771.405 588.89 804.808 564.341C837.443 540.205 862.113 506.081 883.655 472.109C930.36 398.389 960.929 309.182 953.529 221.058C952.534 211.087 950.357 198.973 958.092 191.096C959.404 189.748 957.201 187.939 955.89 189.138L955.878 188.898Z" fill="#632DAA"/>
<path d="M958.563 186.035C952.403 193.033 952.509 202.381 953.411 211.172C954.591 222.462 956.183 233.625 956.812 244.984C958.032 268.137 957.101 291.354 954.033 314.335C947.729 360.952 933.984 406.254 913.321 448.514C902.768 470.195 890.644 491.076 877.048 510.991C865.536 528.479 852.366 544.817 837.719 559.777C822.696 574.794 805.128 587.026 785.832 595.904C764.929 605.094 743.387 612.757 721.376 618.831C698.854 625.949 675.852 631.448 652.546 635.286C630.342 638.602 607.833 639.39 585.452 637.635C539.282 633.808 494.737 619.578 448.141 619.243C406.462 619.052 364.214 627.866 328.304 649.741C292.394 671.616 266.204 704.395 248.105 742.032C229.113 781.458 219.782 824.445 217.552 867.983C216.438 890.496 216.808 913.037 216.204 935.533C215.622 956.275 214.34 977.385 208.702 997.479C206.104 1006.74 202.331 1015.63 197.476 1023.94C196.526 1025.57 199.129 1026.86 200.188 1025.28C220.416 990.573 219.104 947.463 219.481 908.593C219.27 884.941 220.454 861.297 223.026 837.785C225.873 815.662 231.024 793.898 238.395 772.846C252.789 732.118 275.776 693.129 309.956 666.023C343.179 639.68 383.767 625.888 425.832 622.788C450.408 621.194 475.086 622.447 499.374 626.52C522.016 630.133 544.425 635.219 567.152 638.402C611.369 644.266 656.324 640.778 699.106 628.165C740.35 616.32 784.46 605.643 819.351 579.453C852.632 554.462 877.273 518.544 898.136 483.037C944.184 404.687 969.035 311.123 957.506 220.39C956.19 209.937 953.071 196.712 960.743 187.959C960.954 187.665 961.047 187.303 961.006 186.944C960.966 186.584 960.793 186.253 960.522 186.013C960.25 185.774 959.9 185.644 959.538 185.648C959.177 185.652 958.829 185.79 958.563 186.035Z" fill="#632DAA"/>
<path d="M961.226 183.139C955.215 190.733 955.683 200.51 956.9 209.662C958.499 221.392 960.659 232.996 961.821 244.819C964.14 268.846 964.311 293.032 962.335 317.09C958.407 365.039 946.66 412.021 927.559 456.176C917.768 478.717 906.209 500.448 892.99 521.166C881.575 539.774 868.307 557.179 853.389 573.117C838.383 588.962 820.506 601.815 800.707 610.992C779.484 620.184 757.498 627.503 735 632.866C711.098 639.412 686.698 643.983 662.048 646.534C638.139 648.636 614.069 648.033 590.296 644.737C541.602 637.876 495.036 620.472 445.806 616.603C402.354 613.199 357.505 618.604 318.356 638.643C299.484 648.148 282.426 660.889 267.955 676.287C253.858 691.808 241.981 709.209 232.663 727.993C212.469 768.222 203.477 812.797 202.779 857.623C202.411 880.881 203.773 904.126 204.356 927.394C204.886 949.282 204.936 971.491 200.554 993.056C198.601 1003.01 195.406 1012.67 191.043 1021.82C190.955 1022 190.903 1022.2 190.889 1022.39C190.876 1022.59 190.902 1022.79 190.965 1022.98C191.029 1023.17 191.129 1023.34 191.259 1023.49C191.39 1023.64 191.549 1023.76 191.727 1023.85C191.905 1023.94 192.099 1023.99 192.297 1024.01C192.496 1024.02 192.695 1023.99 192.883 1023.93C193.071 1023.87 193.245 1023.77 193.395 1023.64C193.545 1023.51 193.667 1023.35 193.755 1023.17C212.118 985.256 207.881 940.075 206.491 899.303C205.2 875.145 205.57 850.926 207.599 826.818C209.956 803.713 215.063 780.972 222.811 759.077C237.703 717.345 262.616 678.859 299.548 653.493C336.48 628.126 381.083 618.113 425.192 618.668C475.726 619.281 523.007 635.337 571.978 644.697C618.246 653.515 665.855 652.461 711.688 641.605C754.239 631.57 799.565 621.224 834.821 593.945C868.744 567.681 893.394 529.62 913.459 492.285C957.812 409.724 976.665 312.761 961.501 219.934C959.697 208.937 955.798 194.692 963.406 185.063C964.562 183.594 962.382 181.671 961.226 183.139Z" fill="#632DAA"/>
<path d="M963.888 180.242C958.078 188.323 958.816 198.392 960.314 207.779C962.303 220.094 965.037 232.259 966.75 244.608C970.077 268.805 971.393 293.236 970.686 317.65C968.707 393.063 947.452 466.713 908.944 531.583C897.808 551.144 884.678 569.5 869.764 586.359C854.618 603.169 836.227 616.739 815.697 626.253C793.505 635.815 770.361 642.994 746.654 647.671C721.758 653.436 696.389 656.924 670.861 658.092C645.294 658.882 619.717 656.849 594.595 652.029C543.858 642.258 495.582 622.369 444.326 614.908C399.094 608.319 351.365 610.231 308.89 628.416C288.78 636.749 270.391 648.739 254.652 663.776C239.343 679.014 226.544 696.581 216.73 715.823C195.293 757.057 187.14 803.557 188.094 849.962C188.609 874.171 191.033 898.223 192.688 922.39C194.159 944.942 195.544 967.923 192.264 990.393C190.914 1000.61 188.331 1010.62 184.571 1020.21C183.896 1021.95 186.494 1023.27 187.283 1021.55C203.362 981.19 196.683 934.956 193.469 892.868C191.06 868.205 190.47 843.398 191.704 818.649C193.333 794.593 198.177 770.864 206.105 748.094C221.373 704.322 248.676 665.358 288.963 641.702C329.249 618.046 377.667 611.474 423.905 615.552C475.652 620.101 524.081 638.471 574.184 650.678C622.746 662.749 673.313 664.406 722.561 655.54C767.063 647.234 814.435 637.235 850.567 608.253C885.136 580.539 909.64 540.065 928.821 500.736C971.44 412.301 984.078 312.387 964.821 216.125C962.708 205.484 959.171 191.818 966.062 182.195C967.173 180.658 964.964 178.728 963.888 180.242Z" fill="#632DAA"/>
<path d="M966.339 177.661C960.295 186.917 962.163 198.641 964.276 208.835C966.838 221.264 969.801 233.773 971.939 246.386C976.231 271.975 978.461 297.868 978.607 323.815C979.009 374.591 970.974 425.082 954.827 473.224C946.161 498.418 935.182 522.756 922.031 545.927C910.871 566.579 897.39 585.89 881.85 603.484C866.527 620.553 847.728 634.144 826.717 643.345C803.559 652.7 779.399 659.349 754.715 663.161C728.66 667.918 702.198 670.087 675.715 669.636C648.442 668.816 621.336 665.079 594.859 658.488C542.17 645.498 492.093 623.432 438.713 613.016C391.788 603.855 341.753 602.984 296.324 619.687C275.278 627.183 255.862 638.642 239.128 653.445C223.15 668.221 209.859 685.66 199.847 704.983C177.483 747.433 170.581 795.582 173.352 843.035C174.808 868.056 178.321 892.921 181.118 917.793C183.73 941.197 185.993 965.009 183.843 988.538C182.947 998.728 180.944 1008.79 177.87 1018.55C177.275 1020.34 180.147 1020.88 180.736 1019.12C187.291 998.759 188.171 977.123 187.355 955.923C186.255 931.509 182.868 907.354 180.095 882.964C177.269 858.087 174.873 832.998 176.014 807.957C177.089 783.131 181.831 758.6 190.086 735.162C197.581 713.453 208.672 693.158 222.894 675.125C237.858 656.535 256.666 641.402 278.029 630.765C322.013 608.59 373.197 605.786 421.232 612.963C474.679 620.95 524.635 641.829 576.437 656.579C627.671 671.187 681.338 676.863 734.272 669.312C779.904 662.811 828.555 653.424 865.173 623.496C881.277 609.896 895.324 594.034 906.877 576.403C921.087 555.351 933.381 533.066 943.61 509.817C984.55 417.311 990.874 313.384 968.723 215.233C966.162 203.847 962.12 189.574 969.028 178.971C970.058 177.388 967.455 176.095 966.316 177.626L966.339 177.661Z" fill="#632DAA"/>
<path d="M969.082 174.81C963.508 184.1 965.312 195.543 967.448 205.623C970.349 219.192 974.007 232.554 976.827 246.226C982.119 273.02 985.31 300.186 986.37 327.476C988.628 379.428 982.311 431.396 967.673 481.293C959.849 507.546 949.498 532.979 936.765 557.233C925.7 579.253 911.986 599.839 895.929 618.533C880.131 636.585 860.385 650.754 838.224 659.938C813.731 669.961 787.55 675 761.441 678.326C706.005 685.259 649.735 680.683 596.149 664.883C542.031 649.195 490.599 625.251 435.795 611.81C386.391 599.682 333.212 595.593 284.006 610.918C262.026 617.502 241.57 628.379 223.822 642.919C206.872 657.494 192.849 675.16 182.501 694.975C159.444 738.508 154.091 788.158 158.692 836.601C163.373 885.685 177.076 934.509 175.591 984.035C175.325 995.035 173.858 1005.97 171.214 1016.66C170.843 1018.52 173.715 1019.06 174.08 1017.23C179.562 995.671 179.284 973.119 177.292 951.09C175.051 926.418 170.656 902.093 166.936 877.515C163.062 852.071 159.622 826.387 159.931 800.584C160.097 775.421 164.205 750.439 172.105 726.547C179.729 703.464 191.688 682.047 207.34 663.447C223.258 645.107 243.116 630.602 265.428 621.016C312.177 600.524 365.455 600.521 414.834 610.081C470.581 620.879 522.562 644.158 576.315 661.68C628.44 678.7 683.384 688.146 738.349 683.711C786.798 679.827 839.81 671.129 878.404 639.658C895.209 625.403 909.697 608.625 921.349 589.922C935.521 567.925 947.57 544.632 957.335 520.356C976.25 472.868 987.044 422.536 989.265 371.467C991.847 317.929 985.098 265.006 972.183 213.121C969.307 201.523 965.012 187.021 971.622 175.971C972.6 174.348 969.968 173.049 968.904 174.655L969.082 174.81Z" fill="#632DAA"/>
<path d="M971.658 171.895C966.125 182.028 968.458 194.262 971.041 204.937C974.246 218.775 978.471 232.429 981.63 246.348C987.969 274.275 992.204 302.639 994.3 331.2C998.44 384.324 993.921 437.767 980.92 489.442C973.619 517.865 963.318 545.43 950.19 571.675C939.005 594.032 926.033 615.943 909.452 634.723C893.233 653.399 872.685 667.816 849.604 676.714C824.24 686.326 797.066 690.661 770.126 692.926C711.568 697.898 653.444 689.308 597.759 671.014C542.074 652.719 488.749 626.908 432.389 610.654C381.659 596.058 327.136 588.99 275.274 601.64C252.011 607.054 230.078 617.099 210.783 631.176C192.8 645.008 177.902 662.442 167.043 682.363C142.25 726.981 138.051 778.916 144.402 828.75C150.862 879.38 166.6 929.205 167.661 980.46C167.989 991.995 167.091 1003.53 164.982 1014.88C164.907 1015.26 164.985 1015.65 165.2 1015.98C165.415 1016.3 165.75 1016.52 166.13 1016.6C166.51 1016.67 166.905 1016.59 167.227 1016.38C167.549 1016.16 167.773 1015.83 167.848 1015.45C172.269 992.491 170.774 968.862 167.675 945.808C164.242 920.095 158.687 894.704 153.93 869.204C144.323 817.769 138.858 765.281 155.966 714.663C163.612 691.488 175.977 670.147 192.279 651.986C209.453 633.532 230.799 619.46 254.529 610.95C304.655 592.352 360.355 595.751 411.502 608.106C469.298 622.083 523.184 647.767 578.957 667.718C631.949 686.669 687.394 698.688 743.875 697.564C771.066 697.175 798.135 693.841 824.608 687.62C848.749 681.758 871.671 672.286 891.103 656.547C908.519 641.919 923.361 624.478 935.015 604.948C949.466 581.641 961.495 556.918 970.917 531.164C988.763 481.76 998.119 429.693 998.589 377.167C999.386 321.366 990.808 266.559 976.057 212.819C972.751 200.689 967.779 185.247 974.296 173.314C975.217 171.68 972.585 170.381 971.578 171.999L971.658 171.895Z" fill="#632DAA"/>
<path d="M974.292 169.142C969.074 179.486 971.424 191.634 974.116 202.361C977.752 217.03 982.545 231.423 986.272 246.08C993.619 275.091 998.86 304.595 1001.95 334.362C1007.95 389.058 1005.12 444.362 993.577 498.16C987.065 527.45 977.396 555.947 964.74 583.153C953.804 606.662 940.821 629.822 923.937 649.525C907.689 668.934 886.703 683.817 863.013 692.732C836.629 702.379 808.188 706.045 780.215 707.36C719.207 710.116 658.84 698.577 601.519 678.02C543.47 657.228 488.269 629.167 429.637 609.958C376.744 592.607 319.502 582.285 264.159 593.111C239.898 597.508 216.801 606.847 196.302 620.547C177.218 633.963 161.425 651.531 150.109 671.93C124.595 717.18 121.927 770.254 129.819 820.574C138.092 872.876 155.935 924.103 159.451 977.097C160.323 989.073 159.994 1001.11 158.47 1013.02C158.105 1014.85 160.965 1015.45 161.336 1013.59C164.575 989.977 162.095 966.062 158.118 942.625C153.658 916.528 147.216 890.812 141.512 864.826C129.771 811.982 121.583 757.462 138.831 704.787C146.383 681.133 159.155 659.479 176.204 641.427C194.643 622.797 217.462 609.092 242.571 601.568C295.862 584.732 353.967 591.172 406.898 606.087C466.857 622.968 522.757 650.96 580.676 673.454C636.009 694.867 693.702 709.658 753.194 710.772C781.203 711.544 809.207 709.059 836.641 703.365C861.35 697.943 884.845 688.586 904.667 672.537C922.34 657.595 937.27 639.683 948.784 619.608C963.235 595.389 975.043 569.688 984.007 542.947C1001.16 490.867 1009.19 436.218 1007.76 381.405C1006.67 323.233 995.524 266.515 979.46 210.695C975.969 198.29 970.705 182.671 976.947 170.326C977.125 169.966 977.153 169.551 977.025 169.17C976.896 168.79 976.622 168.476 976.263 168.298C975.903 168.12 975.487 168.091 975.107 168.22C974.726 168.348 974.413 168.622 974.234 168.982L974.292 169.142Z" fill="#632DAA"/>
<path d="M976.983 166.102C971.835 176.996 974.598 189.465 977.525 200.656C981.517 215.783 986.763 230.593 990.909 245.692C999.25 275.961 1005.48 306.772 1009.56 337.903C1016.86 394.361 1016.63 452.093 1005.73 508.058C999.95 538.399 990.8 568 978.451 596.311C967.584 620.966 954.625 645.204 937.215 665.755C920.382 685.998 898.28 701.193 873.351 709.659C845.534 719.021 815.734 721.432 786.601 721.533C723.035 721.724 660.567 706.519 601.622 683.493C542.677 660.467 485.887 630.659 426.026 609.09C371.274 589.253 312.08 576.011 253.697 584.593C228.677 587.934 204.595 596.319 182.909 609.239C162.484 622.076 145.532 639.741 133.547 660.678C106.59 707.189 105.758 762.417 115.52 813.973C125.771 868.01 145.816 920.301 151.363 975.219C152.662 987.131 152.846 999.139 151.912 1011.09C151.753 1012.93 154.613 1013.53 154.778 1011.66C156.865 987.25 153.472 962.826 148.578 938.908C142.942 911.535 135.306 884.627 128.444 857.427C114.805 803.491 104.397 747.098 122.469 692.829C130.228 668.643 143.798 646.728 161.991 629.003C181.761 610.807 205.857 597.97 231.988 591.714C288.531 577.104 348.805 586.717 403.486 604.216C464.726 623.795 522.032 653.557 581.288 678.164C638.503 701.948 698.36 719.643 760.497 723.489C813.068 726.742 873.943 723.453 916.948 689.433C935.87 674.457 950.628 654.957 962.599 634.187C977.09 608.939 988.7 582.144 997.211 554.306C1013.93 500.273 1019.55 443.138 1016.94 386.75C1015.5 356.909 1011.92 327.209 1006.24 297.878C1000.03 267.584 992.232 237.636 982.885 208.159C979.091 195.485 973.821 179.894 979.718 167.183C980.507 165.463 977.876 164.164 977.006 165.838L976.983 166.102Z" fill="#632DAA"/>
<path d="M979.639 163.234C974.795 174.546 977.799 187.45 980.841 198.813C985.183 214.576 990.911 229.81 995.402 245.424C1004.66 276.671 1011.84 308.5 1016.87 340.699C1025.9 399.11 1027.41 459.006 1017.86 517.326C1012.78 548.784 1004.14 579.563 992.12 609.073C981.466 634.903 968.331 660.477 950.314 681.98C933.001 703.004 909.88 718.466 883.837 726.436C855.315 735.002 824.929 736.463 795.394 735.441C729.316 733.135 664.799 715.049 604.029 689.812C543.26 664.576 484.714 632.959 423.2 608.766C366.491 586.483 305.403 570.182 243.969 576.28C217.812 578.463 192.381 585.986 169.247 598.385C147.429 610.674 129.256 628.525 116.578 650.119C88.664 697.394 89.6561 754.087 100.96 806.128C113.105 862.032 135.398 915.754 143.21 972.613C144.959 984.893 145.64 997.301 145.245 1009.7C145.172 1011.56 148.077 1011.34 148.265 1009.5C149.29 983.835 144.624 958.324 138.635 933.472C131.817 905.298 122.954 877.52 115.162 849.599C99.7983 795.2 87.2393 737.336 105.534 681.949C113.427 657.474 127.613 635.502 146.672 618.236C167.827 599.384 194.685 588.103 222.293 582.633C282.495 570.599 345.162 583.609 401.995 604.069C464.453 626.512 523.091 657.969 583.781 684.501C642.276 710.089 703.419 730.155 767.094 736.602C797.452 740.092 828.133 739.659 858.381 735.314C884.323 731.181 909.241 722.464 930.03 706.041C949.543 690.646 964.379 670.298 976.384 648.76C991.045 622.289 1002.53 594.18 1010.6 565.017C1026.35 508.824 1030.18 449.725 1025.92 391.636C1023.61 361.307 1019.25 331.169 1012.86 301.431C1005.64 269.637 996.827 238.226 986.449 207.319C982.253 194.267 976.529 177.96 982.266 164.561C982.998 162.83 980.394 161.537 979.548 163.245L979.639 163.234Z" fill="#632DAA"/>
<path d="M982.302 160.337C977.533 172.469 980.864 186.124 984.434 198.128C989.235 214.28 995.325 230.093 1000.33 246.136C1010.59 278.979 1018.73 312.448 1024.69 346.337C1035.07 406.031 1038.17 467.405 1029.95 527.568C1025.55 560.474 1017.27 592.743 1005.27 623.699C994.76 650.6 981.506 677.372 962.733 699.53C944.801 720.965 920.665 736.315 893.648 743.466C863.205 751.501 830.794 751.456 799.625 748.917C732.42 743.437 667.265 722.87 605.806 695.858C543.166 668.491 483.243 635.109 420.174 608.551C361.646 583.88 298.767 564.75 234.499 568.316C207.335 569.384 180.674 575.98 156.147 587.703C133.272 599.106 114.024 616.654 100.56 638.379C70.8813 686.584 73.7555 745.648 86.7628 798.714C100.869 856.438 125.221 911.345 135.322 970.03C137.538 982.516 138.698 995.167 138.789 1007.85C138.774 1009.72 141.708 1009.5 141.81 1007.64C141.756 980.816 135.989 954.4 128.95 928.684C121.066 899.88 111.331 871.542 102.445 843.134C85.1308 787.751 70.0312 728.131 88.7887 670.869C96.8382 645.68 111.928 623.321 132.276 606.432C154.674 588.214 182.605 578.13 210.903 573.691C274.07 563.827 338.659 579.603 397.352 602.4C461.296 627.255 521.523 660.458 583.757 689.115C644.128 716.954 707.107 739.62 773.203 748.873C804.032 753.654 835.344 754.499 866.385 751.389C893.136 748.281 919.235 740.365 941.08 724.034C961.744 708.54 977.17 687.326 989.426 664.825C1004.24 637.13 1015.57 607.709 1023.16 577.231C1038.05 518.901 1040.35 457.797 1034.6 398.042C1031.49 366.456 1026.29 335.111 1019.04 304.211C1011.3 270.788 1000.75 238.444 989.864 206.032C985.392 192.567 979.313 175.803 984.837 161.825C985.511 160.082 982.914 158.761 982.124 160.481L982.302 160.337Z" fill="#632DAA"/>
<path d="M984.993 157.446C980.179 170.552 984.233 185.215 988.28 197.969C993.724 215.531 1000.67 232.736 1006.35 250.285C1017.73 285.239 1026.84 320.893 1033.62 357.023C1045.4 420.126 1049.35 485.333 1040.57 549.171C1036.72 577.718 1029.95 605.795 1020.38 632.965C1010.88 659.59 998.742 686.137 981.477 708.654C963.796 732.919 938.435 750.499 909.509 758.542C877.06 767.221 842.287 766.021 809.22 762.24C738.431 754.109 670.395 730.645 605.959 700.924C541.999 671.358 480.585 636.487 416.184 607.787C357.42 581.609 294.78 560.529 229.741 560.486C178.755 560.35 124.733 574.567 91.9366 616.281C54.8238 663.364 56.1602 726.711 70.0466 782.097C85.4748 843.809 113.377 901.836 126.662 964.135C129.721 977.953 131.609 992.005 132.306 1006.14C132.382 1008 135.282 1007.81 135.326 1005.94C134.09 976.668 126.664 947.955 118.024 920.103C108.517 889.426 97.1924 859.342 87.0773 828.872C67.8468 770.843 51.2863 705.538 77.1607 646.803C88.2685 621.487 107.146 600.364 131.06 586.494C153.526 573.475 179.345 566.963 205.031 564.567C269.245 558.575 333.286 576.358 392.095 600.668C457.044 627.511 518.418 662.135 581.64 692.716C645.297 723.504 711.518 749.348 781.479 761.337C839.719 771.29 910.534 776.595 959.225 736.614C980.615 718.971 995.959 695.178 1007.93 670.384C1019.7 645.805 1028.82 620.042 1035.14 593.531C1049.51 534.204 1051.1 472.213 1044.67 411.696C1040.96 377.972 1035 344.533 1026.84 311.603C1018.01 275.55 1006.16 240.623 993.91 205.616C988.979 191.464 982.12 173.68 987.591 158.768C988.237 157.019 985.639 155.698 984.879 157.423L984.993 157.446Z" fill="#632DAA"/>
</svg>
